<svg xmlns="http://www.w3.org/2000/svg" viewBox="0 0 726 344" role="img" aria-labelledby="title desc">
  <title id="title">MMAE paper thumbnail</title>
  <desc id="desc">Massive multitask audio editing benchmark thumbnail.</desc>
  <defs>
    <linearGradient id="bg" x1="0" y1="0" x2="1" y2="1">
      <stop offset="0" stop-color="#f8efe2"/>
      <stop offset="0.48" stop-color="#eef3ee"/>
      <stop offset="1" stop-color="#e3edf5"/>
    </linearGradient>
    <linearGradient id="bars" x1="0" y1="0" x2="1" y2="1">
      <stop offset="0" stop-color="#ba6b4e"/>
      <stop offset="1" stop-color="#527f92"/>
    </linearGradient>
  </defs>
  <rect width="726" height="344" rx="28" fill="url(#bg)"/>
  <rect x="34" y="32" width="658" height="280" rx="24" fill="#fffaf3" opacity="0.78" stroke="#d7c8b8"/>
  <g transform="translate(88 84)">
    <rect x="0" y="84" width="24" height="78" rx="12" fill="url(#bars)"/>
    <rect x="42" y="34" width="24" height="128" rx="12" fill="url(#bars)"/>
    <rect x="84" y="64" width="24" height="98" rx="12" fill="url(#bars)"/>
    <rect x="126" y="12" width="24" height="150" rx="12" fill="url(#bars)"/>
    <rect x="168" y="56" width="24" height="106" rx="12" fill="url(#bars)"/>
  </g>
  <g fill="none" stroke="#5c6f69" stroke-width="7" stroke-linecap="round">
    <path d="M342 98h176"/>
    <path d="M342 136h236"/>
    <path d="M342 174h204"/>
  </g>
  <g fill="#d7eee5" stroke="#3f8f7a" stroke-width="5">
    <rect x="556" y="82" width="54" height="54" rx="14"/>
    <rect x="612" y="138" width="54" height="54" rx="14"/>
    <rect x="556" y="194" width="54" height="54" rx="14"/>
  </g>
  <text x="88" y="286" fill="#1f1a16" font-family="Georgia, serif" font-size="42" font-weight="700">MMAE</text>
  <text x="244" y="286" fill="#6f6257" font-family="Arial, sans-serif" font-size="22">Multitask Audio Editing</text>
</svg>
